<svg width="50" height="50" viewBox="0 0 50 50" fill="none" xmlns="http://www.w3.org/2000/svg">
<rect opacity="0.1" width="50" height="50" rx="10" fill="white"/>
<path fill-rule="evenodd" clip-rule="evenodd" d="M19.1107 17.5C18.9115 17.5 18.75 17.6615 18.75 17.8607V32.1392C18.75 32.3385 18.9115 32.5 19.1107 32.5H23.3893C23.5885 32.5 23.75 32.3385 23.75 32.1392V17.8607C23.75 17.6615 23.5885 17.5 23.3893 17.5H19.1107ZM26.6107 17.5C26.4115 17.5 26.25 17.6615 26.25 17.8607V32.1392C26.25 32.3385 26.4115 32.5 26.6107 32.5H30.8893C31.0885 32.5 31.25 32.3385 31.25 32.1392V17.8607C31.25 17.6615 31.0885 17.5 30.8893 17.5H26.6107Z" fill="white"/>
</svg>
